<?xml version="1.0" encoding="utf-8"?>
<!-- Generator: Adobe Illustrator 25.4.1, SVG Export Plug-In . SVG Version: 6.00 Build 0)  -->
<svg version="1.0" id="Layer_1" xmlns="http://www.w3.org/2000/svg" xmlns:xlink="http://www.w3.org/1999/xlink" x="0px" y="0px"
	 viewBox="0 0 925.7 675.3" style="enable-background:new 0 0 925.7 675.3;" xml:space="preserve">
<style type="text/css">
	.st0{fill:#FFD800;}
	.st1{fill:#D12431;}
</style>
<path d="M448.6,167c14.1,1.9,28.1,4.5,42.2,6.6c4.2,0.8,8.6,1.2,12.8,2.2c1.8,5.5,4,11,5.9,16.5c4.3,1,8.8,1.4,13.1,2.3
	c1.4,4,2.9,7.9,4.3,11.9c1.3-8.8,2.8-17.6,4.1-26.4c11.6,1.6,23.1,3.8,34.7,5.4c0.1-3,0.1-5.9,0.1-8.9c24.2,0.7,48.4,0.6,72.5,1.3
	c10.2,0.2,20.4,0,30.5,0.5c-0.1,1.8-0.2,3.5-0.2,5.2c12,3.2,24.1,5.8,36.1,8.9c1.6,4.1,2.9,8.4,4.2,12.6l2.4,0.5
	c2.2,6.7,4.5,13.5,6.8,20.2c8.4-8,16.6-16.3,25-24.3c21.3,5.1,42.7,10.1,64,15.2c-2,2.2-4.3,4.1-6.2,6.2c6,1.3,12,2.7,18,4.3
	c-24.7,23.2-49.3,46.3-74,69.4c-1.3,1.4-3.3,2.5-3.7,4.5c-4.7,19.6-9.2,39.2-13.9,58.7c-4.7-1.1-9.4-2.2-14.1-3.4
	c-2.6,19.2-4.8,38.5-7.5,57.7c-7-8-12.8-17.2-21.2-23.8c-3.1-2.3-6.8-4.8-10.9-4.2c-1.9,0.3-3,2.3-3.1,4.1c0.3,2.6,1.4,5,3,7
	c3.9,5,8.5,9.3,12.5,14.1c7.6,9.1,13.9,19.9,15.3,31.9c1.3,12.3-0.8,24.6-6.1,35.8c-5.5,11.4-15.1,21-27,25.5
	c-9.8,3.7-20.4,4.5-30.6,2.1c-9.2-2.3-18.7-4.5-26.6-10c-2.3-1.3-4-3.7-6.8-3.8c-27.4-1.7-54.7-3.6-82-5.2c0.2-2.5,0.5-5.1,0.7-7.6
	c-9.4,0.9-18.8,1.4-28.2,2.3c-2.7-3.9-5.4-7.8-8.1-11.7c-3.1,0.1-6.1,0.3-9.2,0.8c-5-7.1-9.9-14.3-14.7-21.5
	c0.9,11.6,1.8,23.2,2.6,34.7c-18.1,1.3-36.2,2.7-54.2,4.2c-0.6-4-0.9-8.1-0.9-12.2c-5.7,0.2-11.5,0.5-17.2,1.3
	c-11.9,6.5-25.6,9-39.1,8.6c-18,0.2-37.1-5.5-49-19.7c-4.3-2.9-8.9-5.5-12.7-9.1c1.8,11.8,3.7,23.6,5.5,35.5
	c-19.9,3-39.9,6.3-59.8,9.2c-0.6-4.2-1.3-8.3-1.9-12.5c-5.2,0.7-10.4,1.6-15.6,2.4c-4.1-25.2-7.6-50.5-11.6-75.7
	c-3.4,0.5-6.8,1-10.2,1.7c-1.1-5-1.6-10-2.4-15c-5.2,0.6-10.3,1.7-15.5,2.3c-2-13.7-4-27.4-6.2-41.1c-5.6,1.4-11.3,2.5-17,4
	c-1-4.7-2.2-9.3-3.2-14c-4.9,1-9.6,2.3-14.5,3.2c-10.9-47.3-21.8-94.7-32.7-142c20.4-4.7,40.8-9.4,61.2-14.1
	c1.4,5.4,2.6,10.8,3.8,16.3c4.1-1,8.1-1.9,12.2-2.8c2,8.7,4.1,17.4,6,26.1c1-16.3,8-32,18.8-44.2c12.2-13.7,29-22.5,47.3-24.7
	c25-3.4,51.3,7.1,67.2,26.6c1.9,2.5,4.4,4.4,6.7,6.5c11.5-16.5,29.3-27.7,49.1-31c23.6-3.9,47.6,3.5,64.9,19.9
	C445.6,185.4,447.1,176.3,448.6,167 M454.8,175.6c-1.2,7.8-2.5,15.6-3.7,23.4c-0.1,1.3-0.9,3,0.3,4.1c14.6,18.8,19.4,43.4,13,66.3
	c-1,3.1-1,6.3-1.5,9.5c-1,6.3-2.9,12.4-5.5,18.2c-1,1.7-1.8,3.5-2.5,5.4h-0.2c-0.9,1.7-1.9,3.3-2.9,4.9c7.8,1.2,15.6,2.6,23.5,3.7
	c3.6-22.4,7.3-44.8,10.8-67.3c9.5,24.5,18.9,49,28.2,73.6c14.2,2.4,28.4,4.5,42.6,6.9c7-43,13.8-85.9,20.7-128.9
	c-13.4-2.1-26.9-4.3-40.3-6.5c-3.8,23.7-7.5,47.5-11.3,71.2c-9.5-25.9-18.9-51.7-28.4-77.6C483.3,180.3,469.1,178,454.8,175.6
	 M254.7,180.3c-15.8,2.5-30.2,10.5-40.7,22.6c-10.6,12.3-16.9,28.4-16.5,44.6c-0.3,12.8,3.7,25.4,10.4,36.2
	c6.2-1.4,12.5-2.8,18.7-4.3c2.3,9.2,4.1,18.6,6.6,27.8c19.4,10.8,44.1,10.9,63.7,0.5c33.3-17.3,46.2-58.4,28.9-91.7
	c-6.3-12-16-21.9-27.8-28.3C284.7,180.5,269.5,177.9,254.7,180.3 M361.7,188.2c-11.9,5.8-21.7,15.1-28.4,26.5
	c1.6,4.4,3.7,8.7,4.8,13.3c4.9,18.1,2.8,37.4-5.8,54.1c8.3,15.2,22.2,26.6,38.7,31.9c35.8,11.5,74.1-8.2,85.6-43.9
	c2.7-8.3,3.7-17,3.1-25.7c-2.7-37.5-35.3-65.7-72.8-63C378.2,182,369.6,184.3,361.7,188.2 M573.3,184.4l-0.1,2.7
	c4.3,0.6,8.5,1.4,12.8,2c-4.7,29.6-9.5,59.2-14.2,88.9c-0.5,12.4-0.7,24.7-0.7,37.1c8-0.1,16,0.3,24.1,0.4c21.7,0,43.3,0.9,65,0.9
	c0.2-11.6,0.5-23.2,0.7-34.8c-13.8-0.4-27.6-0.5-41.4-0.6c0.1-4.8,0.2-9.7,0.1-14.5c12.2,0.1,24.4,0.6,36.6,0.5
	c0.1-10.8,0.4-21.6,0.6-32.4c-12.2,0-24.3-0.5-36.5-0.5c0-4.7,0.2-9.3,0.1-14c13.4,0,26.7,0.6,40.1,0.6c0.2-11.6,0.5-23.3,0.6-34.9
	c-11.5,0-23-0.2-34.5-0.5C608.9,185,591.1,185,573.3,184.4 M668.2,191.9c0,11-0.4,22-0.3,33c-0.1,1.3,0.3,2.9-0.9,3.9
	c5.1,14.3,10.4,28.5,15.5,42.9c-4.4,18.2-8.6,36.5-13,54.7c15.1,3.4,30.2,7.2,45.3,10.6c4.3-17.8,8.5-35.6,12.7-53.5
	c0.1-0.7,0.5-1.4,1.1-1.9c21-20.1,42-40.3,63-60.5c-15.4-3.8-30.8-7.3-46.2-11c-11,10.3-21.5,21.2-32.4,31.5
	c-4.6-14.1-9.5-28.2-14.1-42.4C688.7,196.6,678.5,194.1,668.2,191.9 M116.2,221.6c9.6,42.3,19.6,84.7,29.2,127.1
	c1.4-0.3,2.8-0.5,4.2-0.8c27-6.3,54.1-12.3,81-18.8c-3.4-13.6-6.2-27.2-9.6-40.8c-12.9,3-25.8,6-38.7,8.9
	c-6.7-28.7-13.2-57.5-20-86.3C146.9,214.5,131.5,218,116.2,221.6 M473.3,333.2c1.8,23.9,3.9,47.8,5.6,71.6
	c-15.3-22.8-30.3-46-45.8-68.7c-9.6,0.8-19.2,1.5-28.8,2.2c0,4.6,0.4,9.2,0.2,13.8c-0.1,21.1,0.2,42.2,0.1,63.2
	c-0.3,8.8-2.2,17.5-5.7,25.7c-0.6,1-0.9,2.1-0.8,3.2c0.5,8.4,1.3,16.8,1.9,25.2c13.8-0.8,27.5-1.9,41.3-3.2c0.5-2.4-0.1-4.8-0.3-7.2
	c-1.5-20.2-3.1-40.5-4.6-60.7c15,21.5,29.7,43.3,44.6,64.9c14.4-1,28.7-2.1,43-3.3c-3.4-43.3-6.7-86.7-10-130.1
	C500.5,331,486.9,332,473.3,333.2 M351.7,333.7c0.8,14.8-0.2,29.6,0.5,44.3c0,11.2,0,22.4,0,33.6c-0.3,4-0.8,8.7-4,11.5
	c-3.4,2.8-8.3,2.9-12.4,2c-3.7-0.9-6.5-3.9-7.2-7.7c-1.2-5.5-0.9-11.2-0.9-16.8c0-6.5,0.1-13-0.2-19.5c0-15.8,0-31.5-0.1-47.2
	c-14.6,0.3-29.2-0.3-43.8,0.3c2.8,17.9,5.6,35.8,8.1,53.8c-3.1,0.4-6.1,1-9.2,1.5c0.1,5.8-0.2,11.7,0.2,17.5
	c0.1,5.2-0.2,10.5,0.7,15.7c1.6,12.1,6.9,24.1,16.6,31.8c10.5,8.6,24.3,11.7,37.6,11.9c13.6,0.3,28-1.9,39.5-9.7
	c9.6-6.3,15.9-16.8,18.5-27.9c3.3-14.4,1.3-29.1,1.6-43.7c0.2-17.2-0.4-34.4-0.2-51.6C381.9,333.4,366.8,333.6,351.7,333.7
	 M522,337.6c3,40.1,6.2,80.3,9.2,120.4l0.1,0.9c0.1,2.7,0.5,5.4,0.6,8.1c-4.8,0.2-9.5,0.7-14.3,1.2c28.3,1.8,56.5,3.7,84.8,5.4
	c0.9-11.6,1.5-23.2,2.3-34.7c-13.7-1.2-27.5-1.7-41.2-2.8c0.5-4.7,0.5-9.5,0.9-14.2c12.1,0.8,24.2,1.6,36.4,2.3
	c0.9-10.7,1.4-21.5,2.2-32.2c-12.2-1-24.4-1.7-36.5-2.4c0.5-4.6,0.8-9.2,0.9-13.9c13.3,0.6,26.6,1.7,40,2.5
	c0.8-11.6,1.7-23.2,2.2-34.8C580.4,341.3,551.2,339.7,522,337.6 M654.3,341c-12.1,1.9-22.4,10.2-28.5,20.7
	c-6.4,10.7-9.1,24-5.6,36.1c3,10.6,10.2,19.2,17.5,27.2c3.1,3.6,6.9,6.7,8.9,11.2c1.5,3.7,1,8.6-2.2,11.2c-2.6,1.9-5.8,2.6-8.9,2.2
	c-8.8-1.4-17.7-5.2-23-12.7c-1,13-1.7,26.1-2.6,39.1c9.2,5,19.4,8.7,30,9.6c13.8,1.2,28.1-4.5,36.9-15.2c8-9.5,11.6-22.1,11.3-34.4
	c-0.3-9-4.2-17.5-9.7-24.5c-4.8-6.4-10.9-11.5-15.9-17.7c-3-3.8-4.8-9.1-2.6-13.7c1.6-3.7,5.8-5.8,9.8-5.6c9.3,1,18.6,6,23.1,14.5
	c1.7-11.6,3.8-23.2,5.6-34.8C685.8,344.7,669.9,338.5,654.3,341 M179.8,358.2c2.1,13.5,4.3,27.1,6.2,40.6c8.6-1.1,17.2-2.6,25.9-3.9
	c4.8,29.4,9.1,58.8,13.8,88.1c15.6-2.4,31.3-4.8,47-7.3c-4.7-29.4-9.2-58.8-13.7-88.2c8.6-1.3,17.2-2.6,25.8-4.1
	c-2.1-13.6-4.1-27.2-6.4-40.8C245.6,348,212.7,352.9,179.8,358.2 M261.2,222.8c13.7-2.3,26.7,6.9,29.1,20.6c0.4,2.2,0.5,4.4,0.2,6.6
	c-1,11.2-10.4,21-21.6,22.4c-11.7,1.8-23.8-5.9-27.2-17.1c-3.6-11.1,1-23.3,11-29.3C255.3,224.4,258.2,223.3,261.2,222.8
	 M267.6,246.3c-6,4-7.3,13.5-2,18.5c9.6,0.4,17.6-8.6,17.3-18C278.5,243.5,272.1,242.9,267.6,246.3 M388.4,224.3
	c11.1-1.5,21.8,4.5,26.4,14.6c3.7,8.1,2.7,17.6-2.5,24.8c-6.6,9.7-20.6,13.3-31.1,8.1c-8.6-4-14.6-13.2-14.2-22.8
	C366.6,237,376.5,225.8,388.4,224.3 M382.4,251.9c-2.4,1.8-4.1,4.3-4.8,7.2c3.3,4.8,8.8,7.6,14.5,7.4c3.8,0.2,7.3-1.5,10.3-3.5
	c0.2-4.5-1.9-8.9-5.6-11.5C392.5,248.6,386.7,248.8,382.4,251.9 M701.8,484.5c5.8,0,11.7,0,17.6,0c0,1,0,1.9,0,2.9
	c-2.4,0-4.8,0-7.2,0c0,6.2,0,12.4,0,18.6h-3.4c0-6.2,0-12.4,0-18.7h-7C701.8,486.4,701.8,485.4,701.8,484.5 M722.1,484.5h4.7
	c1.8,5.9,3.9,11.6,5.8,17.4c2-5.8,3.9-11.7,6-17.5h4.4c0,7.2,0,14.4,0,21.5h-3.1c0-4.6,0-9.2,0-13.8l0.5,0.4c0-1.2,0-2.4-0.1-3.6
	c-1.4,0.8-1.2,2.7-1.7,4c-1.4,4.3-2.9,8.6-4.4,12.9h-3.3c-1.8-5.5-3.7-11-5.6-16.5c0,5.5,0,11,0,16.5h-3.2
	C722.1,498.8,722.1,491.6,722.1,484.5L722.1,484.5z"/>
<path class="st0" d="M454.8,175.6c14.3,2.3,28.5,4.6,42.8,6.9c9.5,25.9,18.9,51.7,28.4,77.6c3.7-23.7,7.4-47.5,11.3-71.2
	c13.4,2.1,26.9,4.3,40.3,6.5c-6.9,43-13.7,86-20.7,128.9c-14.2-2.4-28.4-4.5-42.6-6.9c-9.3-24.5-18.6-49.1-28.2-73.6
	c-3.5,22.4-7.2,44.8-10.8,67.3c-7.8-1.1-15.6-2.5-23.5-3.7c1-1.6,2-3.3,2.9-4.9h0.2c5.5,0.9,10.9,1.7,16.4,2.6
	c3.5-21.4,6.9-42.8,10.3-64.2l-5.8-0.9c-3.1,19.5-6.3,39-9.4,58.4c-3-0.6-6-1-9-1.3c2.6-5.8,4.5-11.9,5.5-18.2
	c0.5-3.2,0.5-6.4,1.5-9.5c6.4-22.9,1.6-47.5-13-66.3c-1.2-1.1-0.4-2.7-0.3-4.1C452.4,191.2,453.7,183.4,454.8,175.6 M488.3,189.3
	c8.9,24.5,18.1,48.9,27.2,73.3c1.8-0.7,3.7-1.4,5.5-2.1c-9.1-24.4-18.1-48.8-27.2-73.3C491.9,188,490.1,188.7,488.3,189.3
	 M565.8,201.8c-5.8,36.5-11.7,73.1-17.5,109.6c-9.3-1.4-18.6-3-27.9-4.4c-0.4,1.9-0.7,3.9-0.9,5.8c11.2,1.8,22.4,3.6,33.6,5.3
	c6.1-38.5,12.4-76.9,18.5-115.4L565.8,201.8 M254.7,180.3c37.1-5.9,72,19.3,77.9,56.4c1.9,11.8,0.6,23.9-3.6,35
	c-6,15.5-17.4,28.4-32.1,36.1c-19.6,10.3-44.3,10.3-63.7-0.5c-2.5-9.2-4.3-18.6-6.6-27.8c-6.2,1.4-12.4,2.9-18.7,4.3
	c-6.7-10.8-10.7-23.4-10.4-36.2c-0.4-16.3,5.9-32.4,16.5-44.6C224.4,190.8,238.8,182.8,254.7,180.3 M269.6,186.6
	c-0.1,1.9-0.2,3.8-0.4,5.7c29.8,1.5,52.7,27,51.2,56.8c-0.1,2.1-0.3,4.1-0.7,6.1c-1.9,11.5-7.2,22.1-15.4,30.4
	c-9.3,9.5-21.6,15.4-34.8,16.7c0.2,2,0.4,3.9,0.6,5.9c21-2.1,39.6-14.6,49.3-33.4c6.6-12.8,8.5-27.4,5.5-41.5
	C319.2,207.1,296.5,187.9,269.6,186.6 M229.9,235.4c-3.1,9.3-2.5,19.4,1.7,28.2c4.4,9,12.3,15.9,21.9,19c0.6-1.9,1.2-3.8,1.8-5.6
	c-7.9-2.6-14.5-8.3-18.2-15.8c-4.1-8.2-4.3-17.8-0.6-26.2c3.1-7,8.7-12.6,15.6-15.8c-0.8-1.8-1.6-3.6-2.4-5.4
	C240.4,218,233.2,225.9,229.9,235.4 M261.1,222.8c-3,0.6-5.9,1.6-8.5,3.2c-10,6-14.6,18.2-11,29.3c3.5,11.3,15.6,18.9,27.2,17.1
	c11.2-1.4,20.6-11.2,21.6-22.4c1.3-13.9-8.9-26.1-22.8-27.4C265.5,222.3,263.3,222.4,261.1,222.8 M361.7,188.2
	c33.7-16.7,74.5-3,91.3,30.7s3,74.5-30.7,91.3c-32.7,16.2-72.3,3.9-89.9-28.1c8.6-16.7,10.6-36,5.8-54.1c-1.1-4.6-3.2-8.9-4.8-13.3
	C340,203.3,349.9,194.1,361.7,188.2 M381.2,213.3c-19.5,5.7-30.7,26.2-25,45.7c0.1,0.3,0.2,0.6,0.3,0.8l5.5-1.8
	c-5-16.5,4.2-33.9,20.7-39c2.1-0.6,4.2-1.1,6.4-1.2c6.4-0.7,12.7,1.3,18.4,4c0.9-1.7,1.8-3.3,2.8-4.9
	C401.5,211.7,391,210.4,381.2,213.3 M439.1,220.4c16,25,8.7,58.2-16.3,74.2c-0.1,0.1-0.2,0.1-0.3,0.2c-12.9,8.3-28.7,10.9-43.5,7.2
	c-11.4-2.8-21.6-9.1-29.3-17.8c-1.5,1.2-2.9,2.5-4.2,3.9c13,15.7,34.5,23.6,54.6,21c14.8-1.8,28.5-9,38.4-20.1
	c8.3-9.4,13.5-21.1,14.7-33.6c1.3-13.4-1.9-26.8-9.1-38.1C442.4,218.4,440.7,219.4,439.1,220.4 M388.4,224.3
	c-11.9,1.5-21.8,12.6-21.5,24.7c-0.4,9.5,5.7,18.8,14.2,22.8c10.5,5.3,24.5,1.7,31.1-8.1c5.2-7.2,6.2-16.7,2.5-24.8
	C410.2,228.8,399.5,222.8,388.4,224.3 M573.4,184.4c17.7,0.6,35.5,0.5,53.2,0.9c11.5,0.3,23,0.5,34.5,0.5
	c-0.1,11.6-0.4,23.3-0.6,34.9c-13.4,0-26.7-0.6-40.1-0.6c0.1,4.7-0.1,9.3-0.1,14c12.2,0,24.3,0.5,36.5,0.5
	c-0.2,10.8-0.5,21.6-0.6,32.4c-12.2,0.1-24.4-0.4-36.6-0.5c0.1,4.8,0,9.7-0.1,14.5c13.8,0,27.6,0.1,41.4,0.6
	c-0.2,11.6-0.5,23.2-0.7,34.8c-21.7-0.1-43.3-0.9-65-0.9c-8-0.1-16.1-0.5-24.1-0.4c0-12.4,0.2-24.7,0.7-37.1
	c4.7-29.6,9.5-59.2,14.2-88.9c-4.3-0.6-8.5-1.4-12.8-2L573.4,184.4 M649.1,193.8c-0.4,5.1,0,10.1-0.3,15.2
	c-13.1-0.5-26.2-0.2-39.2-0.8c-0.5,9.3-0.3,18.7-0.6,28h5.8c0.3-7.3,0.3-14.6,0.5-21.9c13.1,0.1,26.3,0.3,39.4,0.6
	c-0.1-7.1,0.3-14.1,0.2-21.2L649.1,193.8 M645.3,241.6c-0.3,4.7-0.3,9.4-0.3,14.1c-12.2-0.3-24.3-0.4-36.5-0.6
	c-0.3,9.4-0.5,18.8-0.5,28.2c1.9,0,3.8,0,5.7,0c0.3-7.4,0.4-14.9,0.5-22.3c12.2,0.3,24.3,0.4,36.5,0.6c0.2-6.7,0.2-13.3,0.4-20
	L645.3,241.6 M649.3,288.1c0.1,5.6-0.1,11.3-0.2,17c-23.6-0.1-47.3-0.8-70.9-1c0,2,0,3.9,0,5.9c25.5,0.3,51,0.6,76.6,1.2
	c0.3-7.7,0.3-15.4,0.4-23.1C653.2,288.2,651.3,288.2,649.3,288.1 M668.1,191.9c10.3,2.2,20.5,4.7,30.7,7.3
	c4.6,14.2,9.4,28.2,14.1,42.4c11-10.4,21.4-21.2,32.4-31.5c15.4,3.7,30.8,7.3,46.2,11c-21,20.2-42,40.3-63,60.4
	c-0.6,0.5-0.9,1.2-1.1,1.9c-4.2,17.8-8.5,35.7-12.7,53.5c-15.1-3.4-30.2-7.2-45.3-10.6c4.4-18.2,8.6-36.5,13-54.7
	c-5.1-14.3-10.4-28.6-15.5-42.9c1.2-0.9,0.8-2.5,0.9-3.9C667.7,213.8,668.1,202.8,668.1,191.9 M689,207.4
	c4.5,14.2,9.2,28.3,13.7,42.4c1.9-0.5,3.8-1.1,5.7-1.7c-4.6-14.2-9.2-28.4-13.8-42.5C692.8,206.1,690.9,206.7,689,207.4 M718.8,275
	c-0.9,0.7-1.5,1.8-1.7,3c-3.8,16.2-7.7,32.3-11.4,48.4c1.9,0.4,3.8,0.9,5.6,1.4c3.8-15.5,7.4-31.2,11.2-46.8
	c0.4-2.3,2.6-3.6,4.1-5.2c16.9-16.3,33.9-32.5,50.8-48.8c-1.4-1.3-2.7-2.7-4-4.2C755.1,240.1,737.1,257.6,718.8,275 M116.2,221.6
	c15.4-3.6,30.8-7.1,46.2-10.7c6.8,28.7,13.2,57.5,20,86.3c12.9-2.9,25.8-5.9,38.7-8.9c3.3,13.6,6.2,27.3,9.6,40.8
	c-27,6.4-54,12.4-81,18.8c-1.4,0.3-2.8,0.6-4.2,0.8C135.7,306.3,125.8,264,116.2,221.6 M153.1,221c6.2,27.1,12.4,54.2,18.7,81.3
	c1.9-0.4,3.8-0.9,5.8-1.3c-6.2-27.1-12.5-54.2-18.7-81.3L153.1,221 M211.7,297.2c1.8,8,3.7,16,5.5,23.9
	c-22.5,5.1-44.9,10.3-67.4,15.5c0.4,1.9,0.9,3.9,1.3,5.8c24.3-5.6,48.7-11.2,73.1-16.8c-2.2-9.9-4.6-19.7-6.7-29.6
	C215.6,296.3,213.6,296.7,211.7,297.2 M473.3,333.3c13.6-1.2,27.1-2.2,40.7-3.2c3.4,43.3,6.7,86.7,10,130.1
	c-14.3,1.2-28.7,2.3-43.1,3.3c-14.9-21.6-29.6-43.4-44.6-64.9c1.5,20.2,3.1,40.5,4.6,60.7c0.1,2.4,0.7,4.8,0.3,7.2
	c-13.7,1.3-27.5,2.3-41.3,3.2c-0.5-8.4-1.4-16.8-1.9-25.2c0-1.1,0.2-2.3,0.8-3.2c3.5-8.1,5.4-16.8,5.7-25.6
	c0.1-21.1-0.2-42.2-0.1-63.2c0.1-4.6-0.2-9.2-0.2-13.8c9.6-0.7,19.2-1.4,28.8-2.2c15.5,22.7,30.5,45.8,45.8,68.7
	C477.2,381,475.1,357.2,473.3,333.3 M503.9,339.3c2.9,36.9,5.7,73.7,8.5,110.6c-9.3,0.7-18.7,1.5-28,2.1c0.2,1.9-0.3,4.1,0.6,5.8
	c11.2-0.6,22.4-1.7,33.7-2.5c-2.7-38.9-5.9-77.8-8.9-116.7C507.8,338.8,505.9,339,503.9,339.3 M425.6,345.1
	c14.6,21.6,29,43.4,43.7,64.9c1.5-1.2,3.1-2.3,4.8-3.3c-14.5-21.7-29.1-43.2-43.5-64.9C428.9,342.9,427.2,344,425.6,345.1
	 M425.4,397.1c1.5,19.7,3,39.4,4.5,59.1c-8.2,0.5-16.4,1.3-24.5,1.8c0.1,1.9,0.2,3.9,0.3,5.8c10.2-0.7,20.4-1.5,30.6-2.3
	c-1.8-21.6-3.3-43.2-5.1-64.8C429.2,396.8,427.3,397,425.4,397.1 M351.7,333.7c15.1-0.1,30.2-0.3,45.2-0.2
	c-0.1,17.2,0.4,34.4,0.2,51.6c-0.3,14.6,1.7,29.3-1.7,43.7c-2.6,11.1-8.9,21.6-18.5,27.9c-11.5,7.8-25.8,10-39.5,9.7
	c-13.3-0.2-27.1-3.3-37.6-11.9c-9.6-7.7-15-19.8-16.6-31.8c-0.9-5.2-0.6-10.5-0.7-15.7c-0.4-5.8-0.1-11.7-0.2-17.5
	c3.1-0.5,6.1-1,9.2-1.5c-2.5-17.9-5.3-35.9-8.1-53.8c14.6-0.6,29.2,0,43.8-0.3c0.1,15.7,0.1,31.5,0.1,47.2c0.4,6.5,0.2,13,0.2,19.5
	c0,5.6-0.3,11.3,0.9,16.8c0.7,3.7,3.5,6.7,7.2,7.7c4.1,0.9,9,0.8,12.4-2c3.3-2.8,3.7-7.5,4-11.5c0.1-11.2,0-22.4,0-33.6
	C351.5,363.3,352.4,348.5,351.7,333.7 M386.2,340.7c0.1,15-0.2,30.1,0.2,45.1c-0.1,8.7,0.1,17.4-0.1,26.1
	c-0.5,10.2-2.8,20.8-9.6,28.7c-6.3,7.4-15.9,11-25.3,12.5c-13.5,2.2-28.2,1.7-40.4-5.1c-1.3,1.3-2.7,2.6-4.1,3.9
	c2.5,2.7,6.1,3.7,9.5,4.9c13.3,4.6,27.9,4,41.5,1c11.6-2.6,22.6-9.6,28.1-20.4c6.8-12.7,6.4-27.6,6.3-41.6
	c-0.6-18.4,0-36.8-0.4-55.2L386.2,340.7 M316.5,341.1c-0.1,21.2,0.2,42.4,0.2,63.5c0,6.2-0.2,12.5,1.6,18.4
	c1.5,5.5,5.3,9.9,10.5,12.2c6.6,2.7,14.1,2.2,20.9,0.5c-0.5-1.9-0.9-3.7-1.3-5.6c-6.4,1.3-13.6,2.3-19.4-1.5
	c-4.9-3.4-6-9.8-6.3-15.4c-0.3-10.2,0.1-20.3-0.3-30.5c-0.1-13.9,0.2-27.8-0.2-41.7H316.5 M522,337.6c29.1,2.1,58.3,3.7,87.4,5.8
	c-0.5,11.6-1.4,23.2-2.2,34.8c-13.3-0.8-26.6-1.9-40-2.5c-0.1,4.6-0.4,9.3-0.9,13.9c12.2,0.8,24.4,1.4,36.5,2.4
	c-0.8,10.7-1.3,21.5-2.2,32.2c-12.1-0.8-24.2-1.6-36.4-2.3c-0.4,4.7-0.5,9.5-0.9,14.2c13.7,1.1,27.5,1.7,41.2,2.8
	c-0.7,11.6-1.4,23.2-2.3,34.7c-28.3-1.8-56.5-3.6-84.8-5.4c4.7-0.5,9.5-1,14.3-1.2c-0.1-2.7-0.5-5.4-0.6-8.1c0.2,1.7,0.4,3.3,0.6,5
	c21.8,1.5,43.7,2.8,65.5,4.3c0.7-7.6,1-15.3,1.6-23l-5.8-0.5c-0.5,5.7-0.6,11.5-1.3,17.2c-20.2-1.3-40.4-2.6-60.6-3.9
	C528.2,417.8,524.9,377.7,522,337.6 M597,350.6c-0.2,5-0.7,10-0.9,15.1c-13.1-0.9-26.2-1.7-39.4-2.6c-0.6,9.3-1.1,18.6-1.9,27.9
	l5.9,0.3c0.6-7.3,0.9-14.6,1.5-21.9c13.1,1,26.1,1.6,39.2,2.6c0.6-7,1-14.1,1.4-21.1C600.8,350.8,598.9,350.7,597,350.6 M590,412.2
	c-12.1-0.7-24.3-1.5-36.4-2.3c-0.5,9.4-1.2,18.8-1.8,28.1c2,0.1,3.9,0.2,5.9,0.3c0.6-7.4,1-14.8,1.4-22.2
	c12.2,0.9,24.3,1.5,36.5,2.4c0.4-6.7,1-13.3,1.3-20c-1.9-0.2-3.9-0.3-5.8-0.5C590.6,402.7,590.5,407.4,590,412.2 M654.1,340.9
	c15.7-2.5,31.6,3.7,44,13.1c-1.8,11.6-3.9,23.2-5.6,34.8c-4.5-8.5-13.8-13.5-23.1-14.5c-3.9-0.2-8.2,1.8-9.8,5.6
	c-2.1,4.6-0.4,10,2.6,13.7c5,6.1,11.1,11.3,15.9,17.7c5.5,7,9.4,15.5,9.7,24.5c0.3,12.2-3.3,24.9-11.3,34.3
	c-8.6,10.9-23,16.5-36.7,15.3c-10.6-0.9-20.7-4.5-30-9.6c1-13,1.6-26.1,2.6-39.1c5.2,7.5,14.2,11.3,23,12.7c3.1,0.4,6.3-0.4,8.9-2.2
	c3.3-2.6,3.8-7.5,2.2-11.2c-2-4.5-5.7-7.6-8.9-11.2c-7.3-8-14.5-16.6-17.5-27.2c-3.5-12.1-0.8-25.4,5.6-36.1
	c6.1-10.4,16.4-18.7,28.5-20.6 M649.8,372.4c-3.9,5.9-4.9,13.4-2.5,20.1c1.8,5.8,5.9,10.5,10.2,14.7c6.4,6.8,13.9,13.3,17.2,22.3
	c3.6,9.4,1.2,20.2-4,28.5c-5.3,8.2-14,13.6-23.7,14.8c-8.7,1.3-17.6-0.7-25.6-4.4c-0.8,1.8-1.7,3.5-2.6,5.2c13.8,7,31.5,7.7,45-0.7
	c11.8-7.2,18.5-21.2,18.5-34.9c-0.2-8.1-3.7-15.8-8.6-22.1c-5-6.1-10.9-11.5-16.2-17.4c-4.3-5-7-12.1-4.8-18.6
	c2.2-6.5,8.5-11.3,15.3-11.7c7.1-0.3,14,2.2,19.3,6.8c1.4-1.4,2.8-2.8,4.1-4.2c-7-6.6-17.1-9.5-26.5-8.2
	C658.8,363.8,653.4,367.3,649.8,372.4 M179.8,358.2c32.8-5.2,65.7-10.1,98.5-15.4c2.3,13.6,4.3,27.2,6.4,40.8
	c-8.6,1.5-17.2,2.8-25.8,4.1c4.5,29.4,9,58.8,13.7,88.2c-15.6,2.6-31.3,4.9-47,7.3c-4.7-29.4-9-58.8-13.8-88.1
	c-8.6,1.2-17.2,2.8-25.9,3.9C184.1,385.2,181.9,371.7,179.8,358.2 M268.8,351.8c1,7.5,2.3,15,3.4,22.5c-8.8,1.4-17.6,2.7-26.3,4.1
	c4.7,30.5,9.5,61,14.2,91.5c2-0.3,3.9-0.6,5.8-0.9c-4.4-28.6-8.9-57.1-13.3-85.7c8.7-1.4,17.5-2.7,26.2-4.1
	c-1.3-9.5-2.9-18.9-4.4-28.3L268.8,351.8 M195.6,386.1c0.3,1.9,0.6,3.9,0.9,5.8c7.1-1.1,14.2-2.2,21.3-3.3c-0.2-2-0.6-3.9-0.9-5.8
	C209.8,383.9,202.7,385,195.6,386.1z"/>
<path class="st1" d="M269.6,186.6c26.9,1.2,49.6,20.4,55.3,46.7c3,14,1.1,28.7-5.5,41.5c-9.8,18.7-28.3,31.3-49.3,33.4
	c-0.2-2-0.4-3.9-0.6-5.9c13.2-1.3,25.5-7.2,34.8-16.7c8.1-8.3,13.5-18.8,15.4-30.3c4.9-29.4-14.9-57.3-44.4-62.2
	c-2-0.3-4.1-0.6-6.1-0.7C269.4,190.6,269.5,188.6,269.6,186.6 M488.2,189.4c1.8-0.6,3.7-1.3,5.5-2c9.1,24.4,18.2,48.8,27.2,73.3
	c-1.9,0.7-3.7,1.4-5.5,2.1C506.4,238.2,497.1,213.8,488.2,189.4 M649,193.9h5.7c0.2,7.1-0.2,14.1-0.2,21.2
	c-13.1-0.4-26.3-0.6-39.4-0.6c-0.2,7.3-0.2,14.6-0.5,21.9h-5.8c0.3-9.4,0.1-18.7,0.6-28c13.1,0.6,26.2,0.3,39.2,0.8
	C649,204,648.6,199,649,193.9 M565.8,201.9l5.8,0.9c-6.1,38.5-12.4,77-18.5,115.4c-11.2-1.7-22.4-3.6-33.6-5.3
	c0.2-2,0.5-3.9,0.9-5.8c9.3,1.4,18.6,3,27.9,4.4C554.1,275,560,238.5,565.8,201.9 M689.2,207.5c1.9-0.6,3.8-1.2,5.6-1.8
	c4.5,14.2,9.2,28.3,13.8,42.5c-1.9,0.6-3.8,1.2-5.7,1.7C698.4,235.8,693.7,221.7,689.2,207.5 M381.2,213.4
	c9.8-2.9,20.3-1.6,29.1,3.6c-1,1.6-1.9,3.3-2.8,4.9c-5.7-2.7-12-4.8-18.4-4c-17.2,1.5-29.9,16.7-28.3,33.8c0.2,2.2,0.6,4.3,1.2,6.4
	l-5.5,1.8c-6.2-19.4,4.6-40.1,23.9-46.2C380.7,213.6,381,213.6,381.2,213.4 M229.9,235.5c3.3-9.6,10.5-17.5,19.8-21.6
	c0.8,1.8,1.6,3.6,2.4,5.4c-6.9,3.2-12.5,8.8-15.6,15.8c-3.7,8.4-3.5,18,0.6,26.2c3.7,7.5,10.3,13.2,18.2,15.8
	c-0.6,1.9-1.2,3.8-1.8,5.6c-9.6-3.1-17.5-10-21.9-19C227.4,254.8,226.8,244.7,229.9,235.5 M439,220.5c1.7-1,3.3-2.1,5-3.1
	c7.2,11.3,10.4,24.7,9.1,38.1c-1.2,12.5-6.4,24.3-14.7,33.6c-9.9,11.2-23.6,18.3-38.4,20.1c-20.1,2.6-41.6-5.3-54.6-21
	c1.3-1.4,2.7-2.7,4.2-3.9c7.7,8.8,17.9,15,29.3,17.8c14.9,3.7,30.6,1.1,43.5-7.2c25.1-15.8,32.7-49,16.9-74.1
	C439.2,220.7,439.1,220.6,439,220.5 M153,220.9l5.8-1.3c6.2,27.1,12.5,54.2,18.7,81.3c-1.9,0.5-3.8,0.9-5.8,1.3
	C165.6,275.2,159.3,248.1,153,220.9 M718.8,275c18.2-17.4,36.3-34.9,54.5-52.3c1.3,1.5,2.6,2.9,4,4.2
	c-16.9,16.3-33.8,32.6-50.8,48.8c-1.5,1.6-3.7,2.9-4.1,5.2c-3.7,15.6-7.3,31.2-11.2,46.8c-1.9-0.5-3.8-0.9-5.6-1.4
	c3.7-16.2,7.7-32.3,11.4-48.4C717.3,276.8,717.9,275.7,718.8,275 M475.8,239.9l5.8,0.9c-3.4,21.4-6.9,42.8-10.3,64.2
	c-5.5-0.9-10.9-1.7-16.4-2.6c0.7-1.8,1.5-3.6,2.5-5.4c3,0.2,6,0.7,9,1.3C469.5,278.9,472.7,259.4,475.8,239.9 M645.3,241.6h5.9
	c-0.3,6.6-0.3,13.3-0.4,20c-12.2-0.1-24.3-0.3-36.5-0.6c-0.1,7.4-0.2,14.8-0.5,22.3c-1.9,0-3.8,0-5.7,0c0-9.4,0.2-18.8,0.5-28.2
	c12.2,0.2,24.3,0.4,36.5,0.6C645,251.1,645.1,246.4,645.3,241.6 M649.3,288.2c2,0,3.9,0,5.9,0c-0.1,7.7,0,15.4-0.4,23.1
	c-25.5-0.6-51-1-76.6-1.2c0-2,0-3.9,0-5.9c23.6,0.2,47.3,0.9,70.9,1C649.3,299.5,649.5,293.9,649.3,288.2 M211.7,297.2
	c1.9-0.5,3.9-0.9,5.9-1.2c2.1,9.9,4.5,19.7,6.7,29.6c-24.4,5.6-48.7,11.2-73.1,16.8c-0.5-1.9-0.9-3.8-1.3-5.8
	c22.5-5.1,44.9-10.3,67.3-15.5C215.3,313.1,213.5,305.2,211.7,297.2 M504,339.3c2-0.2,3.9-0.4,5.9-0.6c3,38.9,6.1,77.7,8.9,116.6
	c-11.2,0.8-22.4,1.9-33.7,2.5c-0.9-1.7-0.4-3.9-0.6-5.8c9.3-0.6,18.7-1.4,28-2.1C509.7,413,506.9,376.1,504,339.3 M386.3,340.8h5.7
	c0.5,18.4-0.1,36.8,0.4,55.2c0.1,14,0.5,28.9-6.3,41.6c-5.5,10.8-16.5,17.8-28.1,20.4c-13.6,3-28.2,3.6-41.5-1
	c-3.3-1.2-7-2.2-9.5-4.9c1.4-1.3,2.7-2.6,4.1-3.9c12.2,6.8,26.9,7.3,40.4,5.1c9.4-1.5,19-5.1,25.3-12.5c6.8-7.9,9.1-18.6,9.6-28.7
	c0.2-8.7,0-17.4,0.1-26.1C386.1,370.9,386.4,355.8,386.3,340.8 M316.6,341.1h5.7c0.4,13.9,0.1,27.8,0.2,41.7
	c0.4,10.2,0,20.3,0.3,30.5c0.3,5.6,1.4,12,6.3,15.4c5.7,3.8,13,2.8,19.4,1.5c0.4,1.9,0.8,3.8,1.3,5.6c-6.8,1.7-14.3,2.2-20.9-0.5
	c-5.2-2.3-9-6.7-10.5-12.2c-1.7-6-1.6-12.3-1.6-18.4C316.8,383.4,316.4,362.3,316.6,341.1 M425.6,345.2c1.6-1.1,3.3-2.2,5-3.3
	c14.5,21.6,29.1,43.2,43.5,64.9c-1.6,1.1-3.2,2.2-4.8,3.3C454.7,388.5,440.2,366.8,425.6,345.2 M597.1,350.6c2,0.1,3.9,0.2,5.9,0.3
	c-0.5,7-0.8,14.1-1.4,21.1c-13.1-1-26.1-1.7-39.2-2.6c-0.6,7.3-0.9,14.6-1.5,21.9L555,391c0.7-9.3,1.2-18.6,1.9-27.9
	c13.1,0.9,26.2,1.7,39.4,2.6C596.4,360.7,596.9,355.7,597.1,350.6 M268.8,351.8l5.7-0.9c1.5,9.4,3,18.8,4.4,28.3
	c-8.7,1.4-17.5,2.7-26.2,4.1c4.4,28.6,8.9,57.2,13.3,85.7c-1.9,0.3-3.9,0.6-5.8,0.9c-4.7-30.5-9.5-61-14.2-91.5
	c8.8-1.5,17.6-2.7,26.3-4.1C271.2,366.8,269.8,359.3,268.8,351.8 M649.8,372.4c3.5-5.1,9-8.6,15.1-9.6c9.5-1.3,19.6,1.6,26.5,8.2
	c-1.4,1.4-2.8,2.8-4.1,4.2c-5.3-4.7-12.2-7.1-19.3-6.8c-6.8,0.4-13.4,5-15.3,11.7c-2,6.7,0.5,13.6,4.8,18.6
	c5.3,5.9,11.2,11.3,16.2,17.4c4.9,6.3,8.4,14,8.6,22.1c0.1,13.7-6.6,27.7-18.5,34.9c-13.4,8.4-31.1,7.8-45,0.7
	c0.9-1.7,1.7-3.5,2.6-5.2c7.9,3.7,16.8,5.7,25.6,4.4c9.7-1.2,18.3-6.6,23.7-14.8c5.1-8.3,7.6-19.1,4-28.5
	c-3.3-9.1-10.8-15.5-17.2-22.3c-4.2-4.2-8.3-8.9-10.2-14.7C645,385.8,645.9,378.4,649.8,372.4 M195.6,386.1
	c7.1-1.1,14.2-2.2,21.3-3.3c0.4,1.9,0.7,3.9,0.9,5.8c-7.1,1.1-14.2,2.2-21.3,3.3C196.2,390,195.9,388,195.6,386.1 M425.4,397.2
	c1.9-0.1,3.9-0.3,5.8-0.4c1.8,21.6,3.3,43.2,5.1,64.9c-10.2,0.8-20.4,1.6-30.6,2.3c-0.1-1.9-0.2-3.9-0.3-5.8
	c8.2-0.6,16.3-1.3,24.5-1.8C428.5,436.6,426.9,416.9,425.4,397.2 M590.2,412.2c0.4-4.7,0.6-9.4,1-14.1c1.9,0.2,3.8,0.3,5.8,0.5
	c-0.3,6.7-0.8,13.3-1.3,20c-12.1-0.9-24.3-1.5-36.5-2.4c-0.4,7.4-0.8,14.8-1.4,22.2c-2-0.1-3.9-0.2-5.8-0.3
	c0.6-9.4,1.2-18.7,1.8-28.1C565.9,410.7,578,411.5,590.2,412.2 M593.1,444.8l5.8,0.5c-0.5,7.6-0.9,15.3-1.6,23
	c-21.8-1.5-43.7-2.8-65.5-4.3c-0.2-1.7-0.4-3.3-0.6-5l-0.1-0.9c20.2,1.3,40.4,2.6,60.6,3.9C592.5,456.3,592.6,450.5,593.1,444.8
	L593.1,444.8z"/>
</svg>
